<svg width="182" height="202" viewBox="0 0 182 202" fill="none" xmlns="http://www.w3.org/2000/svg">
<rect x="19" width="163" height="192" rx="4" fill="#EBE4E4"/>
<rect y="10" width="163" height="192" rx="4" fill="white"/>
<path d="M12 29H84.5" stroke="#EBE4E4" stroke-width="3"/>
<path d="M12 44H84.5" stroke="#EBE4E4" stroke-width="3"/>
<path d="M12 59H84.5" stroke="#EBE4E4" stroke-width="3"/>
<path d="M12 74H84.5" stroke="#EBE4E4" stroke-width="3"/>
<path d="M12 92H149" stroke="#EBE4E4" stroke-width="3"/>
<path d="M12 107H149" stroke="#EBE4E4" stroke-width="3"/>
<path d="M12 122H149" stroke="#EBE4E4" stroke-width="3"/>
<path d="M12 137H149" stroke="#EBE4E4" stroke-width="3"/>
<path d="M12 152H149" stroke="#EBE4E4" stroke-width="3"/>
<path d="M12 167H149" stroke="#EBE4E4" stroke-width="3"/>
<path d="M12 182H149" stroke="#EBE4E4" stroke-width="3"/>
<path d="M111.84 59.2001C111.174 59.2001 110.587 59.0001 110.08 58.6001C109.574 58.2001 109.32 57.5735 109.32 56.7201L109.36 56.2801C109.654 53.5335 110 50.6801 110.4 47.7201C110.827 44.7335 111.187 42.4401 111.48 40.8401L108.36 41.7201L107.88 41.8001C107.374 41.8001 106.974 41.6001 106.68 41.2001C106.387 40.8001 106.24 40.3468 106.24 39.8401L106.28 39.4801C106.334 38.9735 106.494 38.5601 106.76 38.2401C107.027 37.9201 107.534 37.6001 108.28 37.2801C109.054 36.9601 110.2 36.6135 111.72 36.2401L113.4 35.8401C114.014 35.7068 114.52 35.6401 114.92 35.6401C115.694 35.6401 116.267 35.8401 116.64 36.2401C117.04 36.6401 117.24 37.2001 117.24 37.9201C117.24 38.2401 117.2 38.5868 117.12 38.9601C116.694 41.0401 115.88 46.9601 114.68 56.7201C114.467 58.3735 113.52 59.2001 111.84 59.2001Z" fill="#0E0E0E"/>
<path d="M129.279 59.2001C126.666 59.2001 124.639 58.3468 123.199 56.6401C121.786 54.9335 121.079 52.4935 121.079 49.3201C121.079 46.6268 121.493 44.2535 122.319 42.2001C123.173 40.1201 124.346 38.5068 125.839 37.3601C127.359 36.2135 129.119 35.6401 131.119 35.6401C133.733 35.6401 135.746 36.4935 137.159 38.2001C138.599 39.9068 139.319 42.3468 139.319 45.5201C139.319 48.2135 138.893 50.6001 138.039 52.6801C137.213 54.7335 136.039 56.3335 134.519 57.4801C133.026 58.6268 131.279 59.2001 129.279 59.2001ZM129.679 54.7201C131.119 54.7201 132.253 53.9201 133.079 52.3201C133.906 50.7201 134.319 48.5468 134.319 45.8001C134.319 43.9601 134.013 42.5601 133.399 41.6001C132.786 40.6135 131.893 40.1201 130.719 40.1201C129.279 40.1201 128.146 40.9335 127.319 42.5601C126.493 44.1601 126.079 46.3335 126.079 49.0801C126.079 50.9201 126.373 52.3201 126.959 53.2801C127.573 54.2401 128.479 54.7201 129.679 54.7201Z" fill="#0E0E0E"/>
<path d="M122.5 24.5C136.391 24.5 147.5 35.1025 147.5 48C147.5 60.8975 136.391 71.5 122.5 71.5C108.609 71.5 97.5 60.8975 97.5 48C97.5 35.1025 108.609 24.5 122.5 24.5Z" stroke="#FC6A6A" stroke-width="3"/>
</svg>
